<?xml version="1.0" encoding="UTF-8"?>
<svg xmlns="http://www.w3.org/2000/svg" xmlns:xlink="http://www.w3.org/1999/xlink" width="32px" height="32px" viewBox="0 0 32 32" version="1.1">
<g id="surface1">
<path style=" stroke:none;fill-rule:nonzero;fill:rgb(55.686275%,84.313725%,90.980392%);fill-opacity:1;" d="M 0.75 13.832031 L 4.039062 5.992188 C 4.714844 4.386719 6.285156 3.34375 8.027344 3.34375 L 23.960938 3.34375 C 25.703125 3.34375 27.273438 4.386719 27.949219 5.992188 L 31.238281 13.832031 C 31.84375 15.273438 31.433594 16.941406 30.230469 17.9375 L 18.191406 27.898438 C 16.917969 28.953125 15.070312 28.953125 13.792969 27.898438 L 1.757812 17.9375 C 0.554688 16.941406 0.144531 15.273438 0.75 13.832031 Z M 0.75 13.832031 "/>
<path style=" stroke:none;fill-rule:nonzero;fill:rgb(47.843137%,75.686275%,86.666667%);fill-opacity:1;" d="M 0.632812 16.257812 C 0.832031 16.898438 1.214844 17.488281 1.757812 17.9375 L 13.792969 27.898438 C 15.070312 28.953125 16.917969 28.953125 18.191406 27.898438 L 30.230469 17.9375 C 30.773438 17.488281 31.15625 16.898438 31.355469 16.257812 Z M 0.632812 16.257812 "/>
<path style=" stroke:none;fill-rule:nonzero;fill:rgb(38.039216%,64.705882%,80.784314%);fill-opacity:1;" d="M 26.722656 20.839844 L 30.230469 17.9375 C 30.773438 17.488281 31.15625 16.898438 31.355469 16.257812 L 0.632812 16.257812 C 0.832031 16.898438 1.214844 17.488281 1.757812 17.9375 L 5.265625 20.839844 C 12.328125 19.253906 19.65625 19.253906 26.722656 20.839844 Z M 26.722656 20.839844 "/>
<path style=" stroke:none;fill-rule:nonzero;fill:rgb(80%,97.254902%,100%);fill-opacity:1;" d="M 10.574219 16.257812 L 21.414062 16.257812 L 15.992188 3.34375 Z M 10.574219 16.257812 "/>
<path style=" stroke:none;fill-rule:nonzero;fill:rgb(67.058824%,92.156863%,95.686275%);fill-opacity:1;" d="M 31.355469 16.257812 C 31.597656 15.480469 31.570312 14.621094 31.238281 13.832031 L 27.949219 5.992188 C 27.632812 5.242188 27.125 4.617188 26.492188 4.160156 L 21.414062 16.257812 Z M 31.355469 16.257812 "/>
<path style=" stroke:none;fill-rule:nonzero;fill:rgb(67.058824%,92.156863%,95.686275%);fill-opacity:1;" d="M 5.496094 4.160156 C 4.863281 4.617188 4.355469 5.242188 4.039062 5.992188 L 0.75 13.832031 C 0.417969 14.621094 0.390625 15.480469 0.632812 16.257812 L 10.574219 16.257812 Z M 5.496094 4.160156 "/>
<path style=" stroke:none;fill-rule:nonzero;fill:rgb(55.686275%,84.313725%,90.980392%);fill-opacity:1;" d="M 21.414062 16.257812 L 10.574219 16.257812 L 13.792969 27.898438 C 15.070312 28.953125 16.917969 28.953125 18.191406 27.898438 Z M 21.414062 16.257812 "/>
<path style=" stroke:none;fill-rule:nonzero;fill:rgb(34.117647%,33.72549%,36.078431%);fill-opacity:1;" d="M 15.992188 13.25 C 15.023438 13.25 14.238281 12.460938 14.238281 11.492188 L 14.238281 10.21875 C 14.238281 9.953125 14.453125 9.738281 14.71875 9.738281 L 17.269531 9.738281 C 17.535156 9.738281 17.75 9.953125 17.75 10.21875 L 17.75 11.492188 C 17.75 12.460938 16.964844 13.25 15.992188 13.25 Z M 15.992188 13.25 "/>
<path style=" stroke:none;fill-rule:nonzero;fill:rgb(100%,78.039216%,87.058824%);fill-opacity:1;" d="M 11.996094 11.492188 C 11.996094 10.667969 11.15625 10.003906 10.121094 10.003906 C 9.089844 10.003906 8.25 10.667969 8.25 11.492188 C 8.25 12.316406 9.089844 12.984375 10.121094 12.984375 C 11.15625 12.984375 11.996094 12.316406 11.996094 11.492188 Z M 11.996094 11.492188 "/>
<path style=" stroke:none;fill-rule:nonzero;fill:rgb(100%,78.039216%,87.058824%);fill-opacity:1;" d="M 23.738281 11.492188 C 23.738281 10.667969 22.898438 10.003906 21.863281 10.003906 C 20.832031 10.003906 19.992188 10.667969 19.992188 11.492188 C 19.992188 12.316406 20.832031 12.984375 21.863281 12.984375 C 22.898438 12.984375 23.738281 12.316406 23.738281 11.492188 Z M 23.738281 11.492188 "/>
<path style=" stroke:none;fill-rule:nonzero;fill:rgb(47.843137%,75.686275%,86.666667%);fill-opacity:1;" d="M 11.566406 19.851562 C 14.511719 19.585938 17.476562 19.585938 20.421875 19.851562 L 21.414062 16.257812 L 10.574219 16.257812 Z M 11.566406 19.851562 "/>
<path style=" stroke:none;fill-rule:nonzero;fill:rgb(0%,0%,0%);fill-opacity:1;" d="M 21.03125 10.675781 C 21.289062 10.675781 21.5 10.464844 21.5 10.207031 L 21.5 9.429688 C 21.5 9.171875 21.289062 8.960938 21.03125 8.960938 C 20.773438 8.960938 20.5625 9.171875 20.5625 9.429688 L 20.5625 10.207031 C 20.5625 10.464844 20.773438 10.675781 21.03125 10.675781 Z M 21.03125 10.675781 "/>
<path style=" stroke:none;fill-rule:nonzero;fill:rgb(0%,0%,0%);fill-opacity:1;" d="M 10.957031 10.675781 C 11.214844 10.675781 11.425781 10.464844 11.425781 10.207031 L 11.425781 9.429688 C 11.425781 9.171875 11.214844 8.960938 10.957031 8.960938 C 10.695312 8.960938 10.488281 9.171875 10.488281 9.429688 L 10.488281 10.207031 C 10.488281 10.464844 10.695312 10.675781 10.957031 10.675781 Z M 10.957031 10.675781 "/>
<path style=" stroke:none;fill-rule:nonzero;fill:rgb(0%,0%,0%);fill-opacity:1;" d="M 31.671875 13.652344 L 28.378906 5.8125 C 27.632812 4.027344 25.894531 2.875 23.960938 2.875 L 8.027344 2.875 C 6.089844 2.875 4.355469 4.027344 3.605469 5.8125 L 0.316406 13.652344 C -0.371094 15.292969 0.0859375 17.160156 1.460938 18.296875 L 13.496094 28.257812 C 14.21875 28.859375 15.105469 29.15625 15.992188 29.15625 C 16.878906 29.15625 17.769531 28.859375 18.492188 28.257812 L 30.527344 18.296875 C 31.902344 17.160156 32.359375 15.292969 31.671875 13.652344 Z M 1.179688 14.015625 L 4.472656 6.175781 C 4.671875 5.699219 4.957031 5.277344 5.308594 4.929688 L 7.136719 9.285156 C 7.214844 9.464844 7.425781 9.644531 7.75 9.535156 C 7.996094 9.457031 8.101562 9.160156 8.003906 8.921875 L 6.078125 4.339844 C 6.65625 4 7.324219 3.8125 8.027344 3.8125 L 15.289062 3.8125 L 13.804688 7.34375 C 13.707031 7.582031 13.820312 7.855469 14.058594 7.957031 C 14.296875 8.054688 14.570312 7.945312 14.671875 7.707031 L 15.992188 4.550781 L 17.316406 7.707031 C 17.390625 7.886719 17.554688 8.105469 17.929688 7.957031 C 18.171875 7.859375 18.28125 7.582031 18.179688 7.34375 L 16.699219 3.8125 L 23.960938 3.8125 C 24.664062 3.8125 25.332031 4 25.910156 4.339844 L 23.984375 8.921875 C 23.886719 9.160156 23.992188 9.445312 24.234375 9.535156 C 24.566406 9.660156 24.773438 9.464844 24.847656 9.285156 L 26.675781 4.929688 C 27.027344 5.277344 27.316406 5.699219 27.515625 6.175781 L 30.804688 14.015625 C 31.050781 14.59375 31.105469 15.210938 30.992188 15.789062 L 22.121094 15.789062 L 23.222656 13.164062 C 23.320312 12.925781 23.207031 12.652344 22.96875 12.550781 C 22.730469 12.453125 22.457031 12.5625 22.355469 12.804688 L 21.101562 15.789062 L 10.882812 15.789062 L 9.628906 12.804688 C 9.53125 12.5625 9.253906 12.453125 9.015625 12.550781 C 8.777344 12.652344 8.667969 12.925781 8.765625 13.164062 L 9.867188 15.789062 L 0.992188 15.789062 C 0.882812 15.210938 0.9375 14.59375 1.179688 14.015625 Z M 1.339844 16.726562 L 10.214844 16.726562 L 12.945312 26.585938 L 2.058594 17.574219 C 1.761719 17.332031 1.523438 17.042969 1.339844 16.726562 Z M 14.203125 27.625 L 11.1875 16.726562 L 20.800781 16.726562 L 17.78125 27.625 C 16.726562 28.417969 15.261719 28.417969 14.203125 27.625 Z M 29.929688 17.574219 L 19.042969 26.585938 L 21.769531 16.726562 L 30.648438 16.726562 C 30.464844 17.042969 30.226562 17.332031 29.929688 17.574219 Z M 29.929688 17.574219 "/>
<path style=" stroke:none;fill-rule:nonzero;fill:rgb(0%,0%,0%);fill-opacity:1;" d="M 15.992188 13.71875 C 17.21875 13.71875 18.21875 12.71875 18.21875 11.492188 L 18.21875 10.21875 C 18.21875 9.695312 17.792969 9.269531 17.269531 9.269531 L 14.71875 9.269531 C 14.195312 9.269531 13.769531 9.695312 13.769531 10.21875 L 13.769531 11.492188 C 13.769531 12.71875 14.769531 13.71875 15.992188 13.71875 Z M 14.71875 10.207031 L 17.269531 10.207031 C 17.277344 10.207031 17.28125 11.492188 17.28125 11.492188 C 17.28125 12.203125 16.703125 12.78125 15.992188 12.78125 C 15.285156 12.78125 14.707031 12.203125 14.707031 11.492188 C 14.707031 11.492188 14.710938 10.207031 14.71875 10.207031 Z M 14.71875 10.207031 "/>
</g>
</svg>
